<svg width="32" height="32" viewBox="0 0 32 32" xmlns="http://www.w3.org/2000/svg">
    <style>
        :root {
            --fill-color: black;
        }

        @media (prefers-color-scheme: dark) {
            :root {
                --fill-color: white;
            }
        }
    </style>
    <path d="M21.6533 18.2C20.0933 17.5067 18.1733 17 16 17C13.8267 17 11.9067 17.52 10.3467 18.2C9.64427 18.517 9.0488 19.0308 8.63233 19.6792C8.21585 20.3275 7.99621 21.0827 8 21.8533V24H24V21.8533C24 20.28 23.0933 18.84 21.6533 18.2ZM1.62667 19.44C1.14362 19.6465 0.731898 19.9904 0.442691 20.4289C0.153484 20.8675 -0.000458248 21.3813 1.02466e-06 21.9067V24H6V21.8533C6 20.7467 6.30667 19.7067 6.84 18.8C6.34667 18.72 5.85333 18.6667 5.33333 18.6667C4.01333 18.6667 2.76 18.9467 1.62667 19.44ZM30.3733 19.44C29.2042 18.9298 27.9423 18.6666 26.6667 18.6667C26.1467 18.6667 25.6533 18.72 25.16 18.8C25.6933 19.7067 26 20.7467 26 21.8533V24H32V21.9067C32 20.8267 31.36 19.8667 30.3733 19.44ZM16 16C18.2133 16 20 14.2133 20 12C20 9.78667 18.2133 8 16 8C13.7867 8 12 9.78667 12 12C12 14.2133 13.7867 16 16 16ZM1.996 14.6667L5.33333 11.3293L8.67067 14.6667L5.33333 18.004L1.996 14.6667ZM26.6667 12L23.3333 17.3333H30L26.6667 12Z" fill="var(--fill-color)"/>
</svg>
